{"title":"Gogglebox Au - S04E02","uid":15732563,"size":1191779112,"categoryP":"video","categoryS":"tv_shows","magnet":"?xt=urn:btih:cec0fa79b903e87100010371e28e8fbe579ea0cb&amp;dn=Gogglebox+Au+-+S04E02&amp;tr=udp%3A%2F%2Ftracker.leechers-paradise.org%3A6969&amp;tr=udp%3A%2F%2Fzer0day.ch%3A1337&amp;tr=udp%3A%2F%2Fopen.demonii.com%3A1337&amp;tr=udp%3A%2F%2Ftracker.coppersurfer.tk%3A6969&amp;tr=udp%3A%2F%2Fexodus.desync.com%3A6969","seeders":6,"leechers":1,"uploader":"Bullrout","files":1,"time":1472804464,"description":"Gogglebox Au - S04E02\r\n\r\nThe Goggleboxers are on their couches discussing the week's best TV highlights, including The Recruit, Zumbo's Just Desserts, The Block, Four Corners and Offspring.\r\n\r\nComplete name                            : Gogglebox Au - S04E02.mkv\r\nFormat                                   : Matroska\r\nFormat version                           : Version 4 / Version 2\r\nFile size                                : 1.11 GiB\r\nDuration                                 : 48mn 26s\r\nOverall bit rate mode                    : Variable\r\nOverall bit rate                         : 3 281 Kbps\r\nEncoded date                             : UTC 2016-09-02 05:57:26\r\nWriting application                      : mkvmerge v9.4.0 ('Knurl') 64bit\r\nWriting library                          : libebml v1.3.4 + libmatroska v1.4.5\r\n\r\nVideo\r\nID                                       : 2\r\nFormat                                   : AVC\r\nFormat/Info                              : Advanced Video Codec\r\nFormat profile                           :   \r\nFormat settings, CABAC                   : Yes\r\nFormat settings, ReFrames                : 3 frames\r\nCodec ID                                 : V_MPEG4/ISO/AVC\r\nDuration                                 : 48mn 26s\r\nBit rate mode                            : Variable\r\nBit rate                                 : 2 895 Kbps\r\nMaximum bit rate                         : 3 000 Kbps\r\nWidth                                    : 1 280 pixels\r\nHeight                                   : 720 pixels\r\nDisplay aspect ratio                     : 16:9\r\nFrame rate mode                          : Constant\r\nFrame rate                               : 25.000 fps\r\nStandard                                 : PAL\r\nColor space                              : YUV\r\nChroma subsampling                       : 4:2:0\r\nBit depth                                : 8 bits\r\nScan type                                : Progressive\r\nBits/(Pixel*Frame)                       : 0.126\r\nStream size                              : 1 003 MiB (88%)\r\nWriting library                          : x264 core 112\r\nDefault                                  : Yes\r\nForced                                   : No\r\nColor range                              : Limited\r\nColor primaries                          : BT.709\r\nTransfer characteristics                 : BT.709\r\nMatrix coefficients                      : BT.709\r\n\r\nAudio\r\nID                                       : 1\r\nFormat                                   : AC-3\r\nFormat/Info                              : Audio Coding 3\r\nMode extension                           : CM (complete main)\r\nFormat settings, Endianness              : Big\r\nCodec ID                                 : A_AC3\r\nDuration                                 : 48mn 26s\r\nBit rate mode                            : Constant\r\nBit rate                                 : 384 Kbps\r\nChannel(s)                               : 6 channels\r\nChannel positions                        : Front: L C R, Side: L R, LFE\r\nSampling rate                            : 48.0 KHz\r\nFrame rate                               : 31.250 fps (1536 spf)\r\nCompression mode                         : Lossy\r\nStream size                              : 133 MiB (12%)\r\nDefault                                  : Yes\r\nForced                                   : No","torrent":{"xt":"urn:btih:cec0fa79b903e87100010371e28e8fbe579ea0cb","amp;dn":"Gogglebox+Au+-+S04E02","amp;tr":["udp%3A%2F%2Ftracker.leechers-paradise.org%3A6969","udp%3A%2F%2Fzer0day.ch%3A1337","udp%3A%2F%2Fopen.demonii.com%3A1337","udp%3A%2F%2Ftracker.coppersurfer.tk%3A6969","udp%3A%2F%2Fexodus.desync.com%3A6969"],"infoHash":"cec0fa79b903e87100010371e28e8fbe579ea0cb","infoHashBuffer":{"type":"Buffer","data":[206,192,250,121,185,3,232,113,0,1,3,113,226,142,143,190,87,158,160,203]},"announce":[],"urlList":[]}}